<svg xmlns="http://www.w3.org/2000/svg" viewBox="0 0 37.1 53.05"><defs><style>.cls-1{fill:none;stroke:#000;stroke-miterlimit:10;}</style></defs><title>11</title><g id="Layer_2" data-name="Layer 2"><g id="Layer_1-2" data-name="Layer 1"><path class="cls-1" d="M34.82,26.91a40.14,40.14,0,0,0-1.08-5.21c-.25-.83-.55-1.64-.86-2.46q-1.77-4.74-3.53-9.47a5.48,5.48,0,0,0-1.24-2.24L26.61,6a31,31,0,0,0-2.46-2.27A14.53,14.53,0,0,0,18,.82c-.82-.17-2.44-.57-3.16-.1-.37.24-.67.79-1.06,1.07s-1,.6-1.4.94a10.39,10.39,0,0,0-2.26,2.63,36.33,36.33,0,0,0-2,3.33C7.75,9.44,7.4,10.2,7.06,11l-.78,1.71a65.83,65.83,0,0,0-2.69,6.5A66.46,66.46,0,0,0,1.66,27L.85,30.88a33.28,33.28,0,0,0-.27,7.47c0,.43,0,.86,0,1.29,0,.93.06,1.85.1,2.78a10.41,10.41,0,0,0,.49,3.38,10.89,10.89,0,0,0,.86,1.66l1.25,2.09a4.85,4.85,0,0,0,1.19,1.5,4.88,4.88,0,0,0,1.94.71,30.85,30.85,0,0,0,4.16.69c3.43.24,7,0,10.41-.07a39.71,39.71,0,0,0,8.44-.7,6.46,6.46,0,0,0,3-1.37c.35-.33.65-.72,1-1a8.65,8.65,0,0,0,1.31-1c.52-.62.59-1.61,1.3-2s.39-3.34.39-4.23c0-1.73-.12-3.45-.29-5.17C35.89,33.55,35.35,30.22,34.82,26.91Z"/></g></g></svg>