<svg xmlns="http://www.w3.org/2000/svg" viewBox="0 0 27.68 36.54"><defs><style>.cls-1{fill:none;stroke:#000;stroke-miterlimit:10;}</style></defs><title>12</title><g id="Layer_2" data-name="Layer 2"><g id="Layer_1-2" data-name="Layer 1"><path class="cls-1" d="M10.47.57A4.53,4.53,0,0,0,7.93,1.93,13.2,13.2,0,0,0,6.65,3.55C6.19,4.23,5.6,4.81,5.1,5.47L4.75,6c-.35.52-.54,1.12-.89,1.63A7.35,7.35,0,0,0,3,9.68l-.93,3.13c-.39,1.3-.77,2.6-1,3.93A44.19,44.19,0,0,0,.5,25.5v4.15a6.54,6.54,0,0,0,.92,4.1c1,1.28,2.79,1.61,4.42,1.8a66,66,0,0,0,14.87.13c2.48-.27,5.14-1.4,6.06-3.72a9.07,9.07,0,0,0,.39-3.6c-.11-3.61-.26-7.36-1.95-10.56a17.79,17.79,0,0,1-1.95-3.87c-.22-.89-.19-1.82-.4-2.7a10.7,10.7,0,0,0-.6-1.67c-.52-1.23-1.05-2.45-1.57-3.68a7.48,7.48,0,0,0-.76-1.46C18.09,1.91,16.6.86,13.45.65A12.69,12.69,0,0,0,10.47.57Z"/></g></g></svg>