<svg xmlns="http://www.w3.org/2000/svg" viewBox="0 0 37.52 53.08"><defs><style>.cls-1{fill:none;stroke:#000;stroke-miterlimit:10;}</style></defs><title>21</title><g id="Layer_2" data-name="Layer 2"><g id="Layer_1-2" data-name="Layer 1"><path class="cls-1" d="M2.43,29.35a3.34,3.34,0,0,1-.17.44A14.28,14.28,0,0,0,.71,34.43,39,39,0,0,0,.79,43.2a7,7,0,0,0,.64,2.48,7.13,7.13,0,0,0,1.71,2,44.61,44.61,0,0,0,5.15,3.93,6.64,6.64,0,0,0,1.31.71,6.73,6.73,0,0,0,2.37.25c5.32-.07,10.82.26,16.09-.24A11.31,11.31,0,0,0,31,51.75c2.35-.89,3.81-3.18,5.1-5.33a5.45,5.45,0,0,0,.57-1.13,6,6,0,0,0,.21-1.68,53.21,53.21,0,0,0-.07-8.47c-.4-2.94-.89-5.86-1.54-8.76-.47-2.12-1-4.22-1.66-6.29A45.58,45.58,0,0,0,28.44,8.41a31.07,31.07,0,0,0-5-5.84A6.88,6.88,0,0,0,20,.54,3.92,3.92,0,0,0,16.6,1.72c-.84-.07-1.41.83-2,1.43s-1.42,1-2,1.57a21.47,21.47,0,0,0-1.49,2.14A17.37,17.37,0,0,1,8.87,8.92a8.52,8.52,0,0,0-1.34,1.83c-.33.51-1,.87-1.13,1.52a7.31,7.31,0,0,0,0,1.48A10.78,10.78,0,0,1,5.1,17.59a32,32,0,0,0-1.56,5.53l-.36,1.64A44.78,44.78,0,0,1,2.43,29.35Z"/></g></g></svg>