<svg xmlns="http://www.w3.org/2000/svg" viewBox="0 0 27.93 37.51"><defs><style>.cls-1{fill:none;stroke:#000;stroke-miterlimit:10;}</style></defs><title>22</title><g id="Layer_2" data-name="Layer 2"><g id="Layer_1-2" data-name="Layer 1"><path class="cls-1" d="M5.43,8.05A10.63,10.63,0,0,1,5.1,9.28a11.46,11.46,0,0,1-.64,1.26,22.13,22.13,0,0,0-1.89,6C2.2,18.26,1.83,20,1.45,21.71a32.14,32.14,0,0,0-.95,6.6c0,2.22.63,4.69,2.52,5.85.41.25.87.43,1.3.65s.9.54,1.37.77a13.11,13.11,0,0,0,5,1.07c4.38.35,8.84.7,13.13-.22A3.31,3.31,0,0,0,24.94,36a3,3,0,0,0,.94-1.2C27,32.56,27.1,30,27.19,27.47c.08-2.07.15-4.14.23-6.22a6.21,6.21,0,0,0-.15-2c-.15-.49-.42-.94-.56-1.44a12.67,12.67,0,0,1-.05-3.08A10.42,10.42,0,0,0,25.58,11C24.81,8.65,23,6.88,21.7,4.86A3.15,3.15,0,0,0,21,4a4.94,4.94,0,0,0-1.36-.62,22.19,22.19,0,0,1-2.73-1.61c-2.38-1.37-6.11-2-8.34,0C6.85,3.32,6,5.84,5.43,8.05Z"/></g></g></svg>