<svg xmlns="http://www.w3.org/2000/svg" viewBox="0 0 36.72 50.05"><defs><style>.cls-1{fill:none;stroke:#000;stroke-miterlimit:10;}</style></defs><title>23</title><g id="Layer_2" data-name="Layer 2"><g id="Layer_1-2" data-name="Layer 1"><path class="cls-1" d="M.86,29.57a10.25,10.25,0,0,1,.61-1.5A21.72,21.72,0,0,0,3.24,22a12.4,12.4,0,0,1,.82-3.79c.17-.34.38-.67.53-1A6.89,6.89,0,0,0,5,15.84a30,30,0,0,1,.71-3.12,15.5,15.5,0,0,1,2.58-5c.19-.25.39-.49.59-.73s.42-.5.62-.76a13.08,13.08,0,0,1,2.76-2.7c1-.68,1.81-1.67,2.82-2.31A4.67,4.67,0,0,1,17.34.67L20.06.54c1.93-.09,4-.15,5.6.93a9.17,9.17,0,0,1,2.73,3.71,29.29,29.29,0,0,1,1.88,4.35,9.21,9.21,0,0,0,.58,1.65c.46.88,1.28,1.54,1.69,2.44A7.6,7.6,0,0,1,33,15.74a20.84,20.84,0,0,0,1,4c.4,1.11.89,2.19,1.28,3.3a15.46,15.46,0,0,1,.77,7.32A11.81,11.81,0,0,1,32.86,37a4.79,4.79,0,0,1-1.47,2.44c-.63.69-1.36,1.28-2,2-.38.42-.72.87-1.13,1.26s-.92.71-1.37,1.08c-1.63,1.36-2.55,3.5-4.38,4.57a9.7,9.7,0,0,1-4.1,1l-3.1.27c-1.26-1.12-2.52-2.23-3.86-3.26l-.9-.69-.46-.35-.51-.39a30.78,30.78,0,0,1-3.1-2.72c-.45-.46-.85-1.06-1.34-1.48s-1-.39-1.31-.84c-.1-.14-.19-.33-.36-.33a7.09,7.09,0,0,1-1.21-2.7c-.11-.51-.23-1.12-.71-1.3-.11,0-.22-.42-.32-.51s-.46-.09-.6-.27c-.28-.34-.06-.83,0-1.22C.79,32.18.51,30.84.86,29.57Z"/></g></g></svg>