<svg xmlns="http://www.w3.org/2000/svg" viewBox="0 0 28.17 31.9"><defs><style>.cls-1{fill:none;stroke:#000;stroke-miterlimit:10;}</style></defs><title>51</title><g id="Layer_2" data-name="Layer 2"><g id="Layer_1-2" data-name="Layer 1"><path class="cls-1" d="M27.23,22.15a19.75,19.75,0,0,0-.29-2.54,17,17,0,0,0-.63-2.07Q24.8,13.27,23,9.09a5,5,0,0,0-.56-1,5.67,5.67,0,0,0-.95-.88,15.13,15.13,0,0,1-3.42-4A6.63,6.63,0,0,0,17,1.66C15.69.41,13.61.71,11.8.66a17.08,17.08,0,0,0-4,0A9.63,9.63,0,0,0,3.62,3.2,3.79,3.79,0,0,0,2.4,4.74a7.76,7.76,0,0,0-.17,1.6C2.08,7.73,1.16,8.92.79,10.27a9.74,9.74,0,0,0-.25,2.29q-.11,3.63.08,7.26a20,20,0,0,0,1.61,7.91,3.17,3.17,0,0,0,.71,1,3.3,3.3,0,0,0,.93.53,26.21,26.21,0,0,0,8.67,2c1,.06,2.09.07,3.13.07h6.07A10.51,10.51,0,0,0,25.45,31a2.88,2.88,0,0,0,2.2-3C27.44,26.06,27.36,24.1,27.23,22.15Z"/></g></g></svg>