<svg xmlns="http://www.w3.org/2000/svg" viewBox="0 0 22.34 23.47"><defs><style>.cls-1{fill:none;stroke:#000;stroke-miterlimit:10;}</style></defs><title>52</title><g id="Layer_2" data-name="Layer 2"><g id="Layer_1-2" data-name="Layer 1"><path class="cls-1" d="M9.72,22.94a13.08,13.08,0,0,1-4.1-.29,6.07,6.07,0,0,1-3.71-3A10.49,10.49,0,0,1,1.08,17a23.42,23.42,0,0,1-.56-4.08c0-1.42.15-2.83.12-4.25C.62,7.42.43,6.21.52,5A4.68,4.68,0,0,1,2,1.73,6.11,6.11,0,0,1,5.27.65C7.49.41,9.9.33,11.79,1.51a11.24,11.24,0,0,1,2.09,1.87,18.11,18.11,0,0,1,2.77,3.48c.68,1.21,1.12,2.63,2.21,3.48a6.92,6.92,0,0,1,.74.57c.8.82.58,2.16.93,3.25a15.91,15.91,0,0,0,.73,1.57,10.43,10.43,0,0,1,.56,4.38c0,.57.15,2-.42,2.33a1.76,1.76,0,0,1-.79.1l-1.5.05L13,22.8C11.94,22.86,10.83,22.9,9.72,22.94Z"/></g></g></svg>