<svg xmlns="http://www.w3.org/2000/svg" viewBox="0 0 24.03 27.76"><defs><style>.cls-1{fill:none;stroke:#000;stroke-miterlimit:10;}</style></defs><title>53</title><g id="Layer_2" data-name="Layer 2"><g id="Layer_1-2" data-name="Layer 1"><path class="cls-1" d="M3.53,23.77a10.3,10.3,0,0,0-2.15-4.05A2.8,2.8,0,0,1,.5,18.21,4,4,0,0,1,.73,17a11,11,0,0,0,0-2.56A10.29,10.29,0,0,1,1,12.2C1.54,9.79,2.49,7.47,2.8,5A3.74,3.74,0,0,1,3,4.08C3.29,3.36,4.08,3,4.47,2.29c.13-.24.21-.5.35-.73C5.41.58,6.76.49,7.9.5l6,.08a6.59,6.59,0,0,1,1.83.2,2.2,2.2,0,0,1,1.4,1.12,3.63,3.63,0,0,1,.27,1.17.53.53,0,0,0,.07.3c.09.14.28.16.45.2a2.09,2.09,0,0,1,1.29,1.36c.24.6.34,1.25.62,1.84.62,1.29,2,2.12,2.43,3.5a10.26,10.26,0,0,1,.14,2.29c.09,1.84,1.06,3.57,1.09,5.41A2.7,2.7,0,0,1,23.37,19a3.84,3.84,0,0,1-.91,1.28L18.1,25a7.59,7.59,0,0,1-2.33,1.9,7.57,7.57,0,0,1-3.25.39A6.93,6.93,0,0,1,10.39,27a6.28,6.28,0,0,1-1.21-.62C7.38,25.22,5.64,23.76,3.53,23.77Z"/></g></g></svg>