<svg xmlns="http://www.w3.org/2000/svg" viewBox="0 0 28.58 71.32"><defs><style>.cls-1{fill:none;stroke:#000;stroke-miterlimit:10;}</style></defs><title>r11</title><g id="Layer_2" data-name="Layer 2"><g id="Layer_1-2" data-name="Layer 1"><path class="cls-1" d="M26.59,70.09l1.09-8.84c.16-1.32.32-2.64.38-4a46.19,46.19,0,0,0-.55-8c-.27-2.11-.57-4.22-.86-6.33l-.9-6.46A4.46,4.46,0,0,1,25.91,35a26,26,0,0,0-.07-8,6,6,0,0,0-.39-1.79,4.64,4.64,0,0,1-.32-.77,5.7,5.7,0,0,1-.06-.58,10.22,10.22,0,0,1-.3-1.71A5.55,5.55,0,0,1,25,21.15a8.68,8.68,0,0,0,.12-2.79c-.06-.86.07-1.73.08-2.59A15.23,15.23,0,0,0,25,12.53s0-.11-.08-.08c.08-.73-.55-1.36-.86-2-.18-.37-.27-.78-.43-1.16a7.75,7.75,0,0,0-.81-1.36L20.25,4.22c-.71-1-1.11-2.1-2.19-2.69a8,8,0,0,0-3.81-1L12.43,2.92a6.58,6.58,0,0,1-.88,1c-.22.2-.48.37-.69.59A4.6,4.6,0,0,0,10,6.05,34.21,34.21,0,0,0,8.63,9.71C7.08,15,8,20.88,6.28,26.15c-.29.88-.65,1.73-.85,2.62-.4,1.76-.2,3.68-1,5.27-.7,1.33-.68,2.86-1.1,4.3L3,39.27c-.37,1.24-.77,2.46-1.11,3.7A21.52,21.52,0,0,0,1,48.53a31.85,31.85,0,0,1-.18,3.79C.69,53.58.63,54.88.57,56.15A56.81,56.81,0,0,0,.76,64.4c.07.82.06,1.56.06,2.38.43-1.11.91-2.16,1.33-3.28a2.45,2.45,0,0,1,.44-.81c.33-.36.85-.49,1.21-.83.63-.61.55-1.69,1.15-2.34s1.46-.6,2.15-1c1-.57,1.54-1.92,2.67-2a2.46,2.46,0,0,0,.77,0c.29-.11.46-.39.7-.58a2.55,2.55,0,0,1,1.41-.4,4.41,4.41,0,0,1,3.17.52,7,7,0,0,1,1.34,1.94,5.51,5.51,0,0,0,1.6,1.66,10.52,10.52,0,0,1,2.3,1.48c1,1,1,2.73,2,3.69a9.5,9.5,0,0,1,1.44,1.14A4,4,0,0,1,25,67.32,7.93,7.93,0,0,0,26.59,70.09Z"/></g></g></svg>