<svg xmlns="http://www.w3.org/2000/svg" viewBox="0 0 19.12 59.31"><defs><style>.cls-1{fill:none;stroke:#000;stroke-miterlimit:10;}</style></defs><title>r12</title><g id="Layer_2" data-name="Layer 2"><g id="Layer_1-2" data-name="Layer 1"><path class="cls-1" d="M18.63,54.64a5.52,5.52,0,0,0-.89-1.92,16.89,16.89,0,0,0-10.3-1.17,11.33,11.33,0,0,0-2.3.7,9,9,0,0,0-4.6,4.58c0-3.06.15-6.1.43-9.15A11.45,11.45,0,0,1,1.21,46c.1-.42.26-.84.36-1.26a11,11,0,0,0,.21-1.28c.66-5.33,1.33-10.72.75-16.07a4.61,4.61,0,0,0-.4-1.24A3.65,3.65,0,0,1,2,23.93a1.84,1.84,0,0,0,1-1.46A3.54,3.54,0,0,1,3,22a1.31,1.31,0,0,1,.3-.54l.62-.82c0-1.28,0-2.55,0-3.83a34,34,0,0,0-.39-4.93c0-.17,0-.34-.05-.51l0-.28A6.38,6.38,0,0,1,3.48,9c0-.21.21-.27.21-.52s-.36-.76-.46-1.12a3.73,3.73,0,0,1-.09-.67C3,5.15,1.94,3.79,1.77,2.24A1.53,1.53,0,0,1,2.37.65,1.91,1.91,0,0,1,3.16.51,7.32,7.32,0,0,1,4.85.59a3.66,3.66,0,0,1,2.39,1.7A4.39,4.39,0,0,0,7.68,3c.52.54,1.45.51,2,1,.85.84.21,2.48,1,3.36,1.08,1.15,1.15,3.11,1.18,4.69a6.4,6.4,0,0,0,.06,1.16,5.08,5.08,0,0,0,.51,1.23,20.94,20.94,0,0,1,1.77,5.93,13.11,13.11,0,0,0,.36,1.74c.14.45.35.89.53,1.33a22.74,22.74,0,0,1,1.11,4.31c.71,3.88,1.25,7.8,1.79,11.71a33.12,33.12,0,0,1,.38,4c.05,3.13-.81,6.24-.66,9.37"/></g></g></svg>