<svg xmlns="http://www.w3.org/2000/svg" viewBox="0 0 26.24 74.09"><defs><style>.cls-1{fill:none;stroke:#000;stroke-miterlimit:10;}</style></defs><title>r13</title><g id="Layer_2" data-name="Layer 2"><g id="Layer_1-2" data-name="Layer 1"><path class="cls-1" d="M12.41.67A7.21,7.21,0,0,0,10.24.54,2.46,2.46,0,0,0,8.43,1.63,6.82,6.82,0,0,0,8,3.2c-.45,1.51-1.8,2.63-2.2,4.15A8.32,8.32,0,0,0,5.58,9.4c0,3.06-.69,6.09-.81,9.16-.11,2.63.17,5.3-.35,7.89a24.14,24.14,0,0,0-.84,4.26c0,1.31.36,2.67-.07,3.9-.16.45-.42.86-.61,1.29-.77,1.7-.31,3.78-.54,5.61-.55,4.24-1.2,8.4-1.49,12.66-.2,2.91.48,5.77.13,8.7-.1.83-.25,1.65-.35,2.48A38.25,38.25,0,0,0,.92,74a4.67,4.67,0,0,1,.68-3.3c.67-.91,1.89-1.18,2.9-1.68.67-.33,1.27-.78,1.92-1.14A14.57,14.57,0,0,1,10,66.72a14.16,14.16,0,0,1,3.54-.52,13.49,13.49,0,0,1,2.27.32l3.12.61a4,4,0,0,1,1.69.61,4.68,4.68,0,0,1,.84,1,11.93,11.93,0,0,0,4.17,3.56,62.33,62.33,0,0,0-.25-9.66c-.18-1.53-.41-3-.65-4.57s-.47-3-.7-4.56a5.87,5.87,0,0,0-1.16-3.2,4.9,4.9,0,0,0-.2-2.86,7.09,7.09,0,0,1-.68-1.9,4.26,4.26,0,0,1,.11-1.12,22.57,22.57,0,0,0,.19-6.25,39.11,39.11,0,0,1-.52-5c0-1.8.39-3.64-.49-5.21-.2-.36-.45-.69-.63-1.07a6.63,6.63,0,0,1-.42-3.07q.07-3,.14-6a7.86,7.86,0,0,0-.18-2.37,2.62,2.62,0,0,0-1.46-1.77,8.36,8.36,0,0,0-.34-3.43C17.93,9.08,17,8.23,16.63,7.1c-.17-.55-.19-1.13-.31-1.68a9.05,9.05,0,0,0-2.11-3.57A2.9,2.9,0,0,0,12.41.67Z"/></g></g></svg>