<svg xmlns="http://www.w3.org/2000/svg" viewBox="0 0 28.26 70.39"><defs><style>.cls-1{fill:none;stroke:#000;stroke-miterlimit:10;}</style></defs><title>r21</title><g id="Layer_2" data-name="Layer 2"><g id="Layer_1-2" data-name="Layer 1"><path class="cls-1" d="M1.56,70.12a5.07,5.07,0,0,1-.72-1.88,9.81,9.81,0,0,1-.11-1.09c-.07-1-.14-2.07-.2-3.11a42.23,42.23,0,0,1,.4-6.25c.27-3.49.14-7,.14-10.49a13.43,13.43,0,0,1,.09-1.9c.13-.93.43-1.83.58-2.76a16.32,16.32,0,0,0,.13-2.32,63.62,63.62,0,0,0-.27-7.69C1.23,29.36,2.87,26.25,3.31,23c.4-3-.17-6.14.39-9.14A12.32,12.32,0,0,1,6.06,8.56,3,3,0,0,0,6.84,7.1,9.39,9.39,0,0,1,10,1.53,3.5,3.5,0,0,1,10.9.8,3.59,3.59,0,0,1,12.36.56a5,5,0,0,1,2.27.15c.49.3.38.92.9,1.34a4.86,4.86,0,0,1,1,.84,7.85,7.85,0,0,0,.49.78,6.88,6.88,0,0,1,1.63,2.82l.45,1.39a10.74,10.74,0,0,1,.57,2.35,5.31,5.31,0,0,0,.17,1.32,5.86,5.86,0,0,0,.42.78c.75,1.41.37,3.12.27,4.71a12.94,12.94,0,0,0,.88,5.54A5.87,5.87,0,0,0,22,26.31c.18.33.4.64.56,1a7.68,7.68,0,0,1,.36,3.76c-.12,2.31.92,4.4,1.53,6.61a6.54,6.54,0,0,0,.24.75c.07.17.15.33.21.5a3.34,3.34,0,0,1,.12.63l.39,3.15a2.78,2.78,0,0,0,.16.76,7.92,7.92,0,0,1,.37.78c.09.33,0,.69.1,1a4,4,0,0,0,.41.8,5.12,5.12,0,0,1,.42,2.3c0,.86,0,1.75.09,2.61a19.17,19.17,0,0,1,.39,3.19c0,.41-.1.82-.1,1.23A17,17,0,0,0,27.69,58a10.89,10.89,0,0,1-.4,4.12c-.3,1.27-.65,2.52-1,3.77a3.75,3.75,0,0,0-1-2.72,18.43,18.43,0,0,1-1.86-2.29,5.56,5.56,0,0,0-1.07-1.67,4.58,4.58,0,0,1-.88-.68c-.15-.2-.21-.45-.36-.65a1.81,1.81,0,0,0-.59-.47A12.28,12.28,0,0,0,12.7,56a2.18,2.18,0,0,0-.8.23c-.68.38-.86,1.25-1.29,1.9C9.76,59.34,7.93,59.69,7.14,61a13.89,13.89,0,0,1-.88,1.77,7.36,7.36,0,0,1-1.57,1.1c-1.55,1.09-2,3.21-3.25,4.61C1.21,68.71,1.39,69.86,1.56,70.12Z"/></g></g></svg>