<svg xmlns="http://www.w3.org/2000/svg" viewBox="0 0 19.09 59.32"><defs><style>.cls-1{fill:none;stroke:#000;stroke-miterlimit:10;}</style></defs><title>r22</title><g id="Layer_2" data-name="Layer 2"><g id="Layer_1-2" data-name="Layer 1"><path class="cls-1" d="M.53,55.17c.8-7-.07-14.05.66-21,.62-5.95,2.4-11.71,4.17-17.43l.87-2.82c-.41-.17-.2-.59,0-1L8.5,6.81a12.72,12.72,0,0,1,.74-1.69,12.73,12.73,0,0,1,1.41-1.87L11.8,1.92a3.81,3.81,0,0,1,.7-.69A3.59,3.59,0,0,1,13.63.77c.55-.14,2.21-.55,2.59,0,.1.15,0,.92.11,1.18.15.47.41.9.56,1.37a5,5,0,0,1-.32,3.32c-.41,1.06-1,2.05-1.33,3.13a12.2,12.2,0,0,0-.38,1.67,23.56,23.56,0,0,0-.25,5.24,30.63,30.63,0,0,0,.5,3.71,36.19,36.19,0,0,1,1.09,7.71c0,1.12-.21,2.23-.2,3.35,0,2.53.78,4.94,1,7.44a12.92,12.92,0,0,1-.17,3.62,5.51,5.51,0,0,0-.14,1A9.57,9.57,0,0,0,17,45a10.71,10.71,0,0,1,.07,1.6,15.33,15.33,0,0,0,1.13,5.67c.77,1.89.26,4,.23,6-.88-.72-.66-2.28-1.57-3-.66-.49-1.67-.32-2.29-.87-.33-.29-.49-.75-.81-1.05A2.2,2.2,0,0,0,13,53c-2.55-1-5.38-1-8.13-1a2.88,2.88,0,0,0-1.34.24,2.94,2.94,0,0,0-.75.7L1.09,55C.94,55.2.71,55.34.53,55.17Z"/></g></g></svg>