<svg xmlns="http://www.w3.org/2000/svg" viewBox="0 0 27.43 76.06"><defs><style>.cls-1{fill:none;stroke:#000;stroke-miterlimit:10;}</style></defs><title>r23</title><g id="Layer_2" data-name="Layer 2"><g id="Layer_1-2" data-name="Layer 1"><path class="cls-1" d="M19.48,11.73l.69,1.13a2.21,2.21,0,0,1,.18.34,1.64,1.64,0,0,1,.07.54c0,.38,0,.77,0,1.15a2.31,2.31,0,0,0,.06.52c.05.16.14.31.18.48.08.39-.15.77-.15,1.17a2.74,2.74,0,0,0,.17.74A7.72,7.72,0,0,1,21,19.6a16.62,16.62,0,0,1-.21,2.72c0,.22,0,.43-.07.65a21.53,21.53,0,0,0-.23,3,2.43,2.43,0,0,1,.68,1.68l.33,2.68c.06.46.12.93.21,1.39a21.62,21.62,0,0,1,.79,3.77,3.84,3.84,0,0,0,.11,1.27,4.07,4.07,0,0,0,.35.65,9.94,9.94,0,0,1,1.24,4.2A3,3,0,0,1,24,43.17a3,3,0,0,0-.2.49,3,3,0,0,0,.11,1,5.34,5.34,0,0,1-.12,1.19A1.78,1.78,0,0,0,24,47c.35.61,0,1.44.36,2,.14.24.38.43.41.7a1.67,1.67,0,0,1,0,.32A3.69,3.69,0,0,0,25,52a1.38,1.38,0,0,1,.12.34,2.26,2.26,0,0,1,0,.45,8,8,0,0,0,.57,1.66,4.26,4.26,0,0,1,.11,1,27,27,0,0,1-.18,3.7c-.13,1.08-.13,2.18-.27,3.28a3.66,3.66,0,0,0,0,1.32c.12.48.44.9.57,1.38a4.06,4.06,0,0,1,.09,1.1,21.53,21.53,0,0,0,.26,2.52c.12.86.27,1.75.39,2.61a11.75,11.75,0,0,0-3.07-2.94c-.71-.41-1.5-.66-2.23-1-.48-.24-.93-.53-1.4-.77-2.59-1.33-5.69-1.27-8.55-.75a1.91,1.91,0,0,0-.81.28c-.29.22-.43.57-.69.82-.51.48-1.36.45-1.83,1a4.18,4.18,0,0,0-.4.63C7,69.63,5.37,69.81,4.6,70.86c-.17.23-.29.49-.48.7-.34.39-.88.58-1.19,1a6,6,0,0,0-.49,1.09A4.25,4.25,0,0,1,1.1,75.1c-.17-2.19.38-4.66-.48-6.68-.35-.84.18-1.79.12-2.69,0-.44-.2-.86-.21-1.3a6.4,6.4,0,0,1,.38-1.71c.44-1.8-.26-3.77.35-5.52.07-.2.15-.39.21-.59a4.82,4.82,0,0,0,.07-1.14,9.21,9.21,0,0,1,.59-3.15,4.1,4.1,0,0,0,.45-1.75c0-.49-.31-.94-.33-1.43a3.09,3.09,0,0,1,.11-.8c.19-.74.43-1.47.67-2.2A5.66,5.66,0,0,0,3.31,45a9.37,9.37,0,0,1,.21-1.29A5.88,5.88,0,0,0,3.28,40a2,2,0,0,1-.09-.26,1.78,1.78,0,0,1,.19-.87c.3-.94-.08-2,.28-2.93,0-.12.1-.23.14-.35a1.67,1.67,0,0,0,.05-.5c0-.57,0-1.13,0-1.7A5.8,5.8,0,0,1,4,31.82a3.74,3.74,0,0,0,.12-.45,3.2,3.2,0,0,0,0-.62,8.46,8.46,0,0,1,.32-2.55,6.78,6.78,0,0,0,.22-1.67,5.19,5.19,0,0,1,.12-1.72c.09-.24.23-.47.33-.71.48-1.19-.16-2.64.41-3.79,0-.11.12-.22.16-.33.28-.7-.18-1.64.33-2.2a.93.93,0,0,0,.22-.27.7.7,0,0,0,0-.29,5.33,5.33,0,0,1,.14-1.78,2.43,2.43,0,0,0,.15-.7c0-.24-.12-.46-.13-.7a14.67,14.67,0,0,1,.4-2.46,1,1,0,0,1,.07-.35,1.32,1.32,0,0,1,.25-.38,2.44,2.44,0,0,0,.45-.78c0-.13,0-.19.1-.29s.26-.16.35-.27c.32-.4.1-1,.09-1.48a3.33,3.33,0,0,1,.33-1.3,4.63,4.63,0,0,1,.46-1,4.53,4.53,0,0,0,.3-.46,10.84,10.84,0,0,0,.34-1.39,3.12,3.12,0,0,1,.92-1.16L12,1.4a1.83,1.83,0,0,1,.72-.48c.13,0,.27-.05.4-.08.28-.07.54-.23.82-.3a2.43,2.43,0,0,1,.6,0,3.28,3.28,0,0,1,2,.46,4.26,4.26,0,0,0,.59.46,1.68,1.68,0,0,1,.3.15c.29.22.2.72.44,1,.09.1.21.17.27.29a.64.64,0,0,1,0,.34,1.89,1.89,0,0,0,.57,1.49,3.88,3.88,0,0,0,.49,1.73,3.45,3.45,0,0,1,.39.67,1.69,1.69,0,0,1,.07.45c.11,1.39.19,2.77.24,4.16a2.29,2.29,0,0,0,.27,1.19"/></g></g></svg>