<svg xmlns="http://www.w3.org/2000/svg" viewBox="0 0 21.89 57.06"><defs><style>.cls-1{fill:none;stroke:#000;stroke-miterlimit:10;}</style></defs><title>r51</title><g id="Layer_2" data-name="Layer 2"><g id="Layer_1-2" data-name="Layer 1"><path class="cls-1" d="M4.15.77a12.18,12.18,0,0,0-3,5.89,24.18,24.18,0,0,0-.34,4.42Q.7,15.81.63,20.53c0,1.79-.05,3.57-.08,5.36C.5,29.34.44,32.79.68,36.23a60.46,60.46,0,0,0,1.8,11,16,16,0,0,1,.61,3c.1,2.05-.65,4.41.67,6,.49-.57.85-1.1,1.33-1.66a3.51,3.51,0,0,1,.55-.54,3.42,3.42,0,0,1,1-.42l4-1.2a17.14,17.14,0,0,1,5.28-1,5.89,5.89,0,0,1,4.72,2.2c-.55-1.91-1.08-3.84-1.63-5.75-.61-2.12-1.22-4.25-1.84-6.37l-1.05-3.63a27.62,27.62,0,0,0-1.7-4.77A21.43,21.43,0,0,1,13.32,31a11.54,11.54,0,0,1-.46-1.93c-.15-.81-.29-1.62-.44-2.43a30.18,30.18,0,0,0-2.11-7.74c-.53-1.12-.18-2.45-.21-3.69a5.79,5.79,0,0,0-.27-1.9,15.35,15.35,0,0,1-.72-1.54C9,11.33,9,10.85,8.94,10.4a13.38,13.38,0,0,0-.56-1.49A13.56,13.56,0,0,1,8,7.12,9.68,9.68,0,0,0,6.54,3.63c-.24-.36-.51-.7-.77-1C5.28,2,4.65,1.42,4.15.77Z"/></g></g></svg>