<svg xmlns="http://www.w3.org/2000/svg" viewBox="0 0 15.94 52.57"><defs><style>.cls-1{fill:none;stroke:#000;stroke-miterlimit:10;}</style></defs><title>r52</title><g id="Layer_2" data-name="Layer 2"><g id="Layer_1-2" data-name="Layer 1"><path class="cls-1" d="M4.13,49.56l1-.93a2.51,2.51,0,0,1,.4-.33,2.17,2.17,0,0,1,1.07-.22,28.61,28.61,0,0,1,4.81.1c.48.06.95.15,1.42.24l.63.12a3.31,3.31,0,0,1,.82.22,2,2,0,0,1,.9.78c-.15-1.17-.24-2.34-.39-3.51a4,4,0,0,0-.28-1.18c-.14-.3-.35-.56-.48-.86a4.63,4.63,0,0,1-.27-1.29,8.4,8.4,0,0,0-.5-1.91,4,4,0,0,1-.37-1.25,1.84,1.84,0,0,0,0-.53.35.35,0,0,0-.41-.25c-.22-.53,0-1.16-.19-1.71-.06-.19-.16-.36-.24-.55a3.47,3.47,0,0,1-.14-1.2c0-.48.1-1,.15-1.5a3.21,3.21,0,0,0-.05-1.48c-.16-.44-.5-.8-.69-1.23S11,30,10.75,29.47c-.1-.2-.25-.38-.35-.58A8,8,0,0,1,10,27.12a17.66,17.66,0,0,0-.8-2c-.47-1.27-.41-2.68-.8-4-.1-.34-.23-.66-.3-1A9.17,9.17,0,0,1,8,18.59a6.76,6.76,0,0,0-.25-1.73c-.78-2.89-.23-6-.55-9a4.56,4.56,0,0,0-.16-.91c-.08-.27-.21-.52-.31-.78-.54-1.38-.38-3-.94-4.33A2.13,2.13,0,0,0,4.88.66a2,2,0,0,0-2,.36A5.43,5.43,0,0,0,1.25,4,10.93,10.93,0,0,0,.83,6.67c0,.37,0,.75,0,1.12C.78,8.5.57,9.19.53,9.9.48,11,.82,12,.84,13.05a17.63,17.63,0,0,0,0,2.62c.07.44.24.87.3,1.32a5.9,5.9,0,0,1-.43,2.58c-.38,1.18,0,2.54,0,3.78a15.11,15.11,0,0,0,.1,1.51c0,.39.14.77.19,1.15a11.86,11.86,0,0,1,.06,1.58c0,.53,0,1.06,0,1.59S1,30,1,30.34c0,.93,0,1.87,0,2.8a23.06,23.06,0,0,0,.19,2.34,5.87,5.87,0,0,0,.39,1.59A4.05,4.05,0,0,0,2,38a1.08,1.08,0,0,1,.23.34,1,1,0,0,1,0,.3c.05,1.44.09,2.89.12,4.33a1.83,1.83,0,0,0,.08.61,2.93,2.93,0,0,0,.23.43,5,5,0,0,1,.47,1,7.67,7.67,0,0,1,.24,1c.07.33.13.67.2,1a8.51,8.51,0,0,1,.17,1.11,1.55,1.55,0,0,0,.07.48,2.69,2.69,0,0,0,.28.46C4.26,49.28,4.22,49.41,4.13,49.56Z"/></g></g></svg>