<svg xmlns="http://www.w3.org/2000/svg" viewBox="0 0 16.26 58.79"><defs><style>.cls-1{fill:none;stroke:#000;stroke-miterlimit:10;}</style></defs><title>r53</title><g id="Layer_2" data-name="Layer 2"><g id="Layer_1-2" data-name="Layer 1"><path class="cls-1" d="M1.74.86c0,.34-.05.68-.08,1-.06.72-.11,1.44-.17,2.16,0,.12-.06.29-.18.28C1.48,5.15,1,5.76,1,6.54c0,1,0,2.08,0,3.12,0,.66-.18,1.33-.23,2a1.47,1.47,0,0,0,0,.42,3.2,3.2,0,0,0,.27.56,2.78,2.78,0,0,1,.17,1.19c0,.56,0,1.13,0,1.69a5,5,0,0,1-.07,1A2.33,2.33,0,0,0,1,17a3,3,0,0,0,.25.86,3.66,3.66,0,0,1,0,1.74c0,.19-.07.38-.1.58a12.12,12.12,0,0,0-.32,3c.08,1.07.12,2.13.17,3.2,0,.89.08,1.79.11,2.68a2.29,2.29,0,0,1,0,.69c-.09.33-.32.67-.19,1A7.91,7.91,0,0,1,1,32.48a4.2,4.2,0,0,1,0,1.73c-.06.2-.14.39-.19.59-.21.85.3,1.78,0,2.61-.06.17-.15.33-.21.5a3.49,3.49,0,0,0-.05,1.67c.07.5.14,1,.2,1.51a19.15,19.15,0,0,1,.28,3.85c-.05.75-.17,1.49-.2,2.23s0,1.4,0,2.11c.06,1.39.11,2.78.17,4.17a3.93,3.93,0,0,0,.13,1c.06.19.15.37.23.56a6,6,0,0,1,.48,2.58c.92-.84,1.79-1.44,2.76-2.22a2.94,2.94,0,0,1,.8-.51,3.37,3.37,0,0,1,1-.15,21.67,21.67,0,0,1,6.73.32,3.72,3.72,0,0,1,2.09,1.16c-.2-.81-.61-1.56-.81-2.37l-.27-1.09-.33-1.32c0-.14-.07-.28-.1-.42a23.3,23.3,0,0,1-.84-3.44c-.09-1.09.15-2.19,0-3.29-.06-.38-.17-.75-.26-1.12a12.86,12.86,0,0,1-.35-3.55,19.43,19.43,0,0,0,.06-2.53,10.72,10.72,0,0,0-.89-2.92c-.05,0,.12.06.12,0,0-1.38-.06-2.75-.08-4.13,0-.37-.12-.74-.11-1.1a2.58,2.58,0,0,0-.1-1.2,9,9,0,0,1-.59-1.36,6.12,6.12,0,0,1-.09-1.05,6.81,6.81,0,0,0-.37-1.9c-.17-.5-.41-1-.55-1.48a16.43,16.43,0,0,1-.31-1.84,8.52,8.52,0,0,0-.59-2,1,1,0,0,1,0-.69.54.54,0,0,0,0-.22c0-.2-.19-.34-.32-.5a2.68,2.68,0,0,1-.34-1.3,6.43,6.43,0,0,0-.6-1.69l-.46-1a7.39,7.39,0,0,1-.36-.88c-.07-.22-.11-.45-.17-.67s-.12-.35-.18-.52a21.21,21.21,0,0,0-.85-2,4.38,4.38,0,0,1-.43-1C5,7.5,5,7.35,5,7.2a7.88,7.88,0,0,1,0-1,2.33,2.33,0,0,0,0-.38,3.13,3.13,0,0,0-.16-.52c-.13-.33-.26-.67-.38-1a1,1,0,0,0-.14-.27A1.55,1.55,0,0,0,4,3.85a1.41,1.41,0,0,1-.36-.48c0-.11-.08-.22-.13-.33-.23-.53-.75-.88-1-1.38l-.18-.34A1.46,1.46,0,0,0,1.74.86Z"/></g></g></svg>